<?xml version="1.0" encoding="UTF-8"?>
<svg width="20" height="20" version="1.1" viewBox="0 0 20 20" xmlns="http://www.w3.org/2000/svg">
 <path d="m3.2 2.1a1.09 1.09 0 0 0-0.772 0.32 1.09 1.09 0 0 0-0.318 0.794v4.33a1.09 1.09 0 0 0 1.09 1.09 1.09 1.09 0 0 0 1.09-1.09v-1.72l2.8 2.8a1.09 1.09 0 0 0 1.54 0 1.09 1.09 0 0 0 0-1.54l-2.8-2.8h1.72a1.09 1.09 0 0 0 1.09-1.09 1.09 1.09 0 0 0-1.09-1.09h-4.33a1.09 1.09 0 0 0-0.0238-0.0016zm9.26 0.0016a1.09 1.09 0 0 0-1.09 1.09 1.09 1.09 0 0 0 1.09 1.09h1.72l-2.8 2.8a1.09 1.09 0 0 0 0 1.54 1.09 1.09 0 0 0 1.54 0l2.8-2.8v1.72a1.09 1.09 0 0 0 1.09 1.09 1.09 1.09 0 0 0 1.09-1.09v-4.35a1.09 1.09 0 0 0-5.18e-4 -0.0078 1.09 1.09 0 0 0-0.0083-0.125 1.09 1.09 0 0 0-0.0031-0.0217 1.09 1.09 0 0 0-0.0238-0.119 1.09 1.09 0 0 0-0.0047-0.017 1.09 1.09 0 0 0-0.0429-0.126 1.09 1.09 0 0 0-0.0021-0.0041 1.09 1.09 0 0 0-0.061-0.124 1.09 1.09 0 0 0-0.0015-0.0021 1.09 1.09 0 0 0-0.0775-0.116 1.09 1.09 0 0 0-1e-3 -1e-3 1.09 1.09 0 0 0-0.093-0.106 1.09 1.09 0 0 0-0.226-0.174 1.09 1.09 0 0 0-0.0646-0.0315 1.09 1.09 0 0 0-0.0625-0.031 1.09 1.09 0 0 0-5.16e-4 0 1.09 1.09 0 0 0-0.0455-0.0155 1.09 1.09 0 0 0-0.0889-0.03 1.09 1.09 0 0 0-5.16e-4 -5.16e-4 1.09 1.09 0 0 0-0.14-0.0274 1.09 1.09 0 0 0-0.142-0.0093zm-4.6 8.95a1.09 1.09 0 0 0-0.769 0.318l-2.8 2.8v-1.72a1.09 1.09 0 0 0-1.09-1.09 1.09 1.09 0 0 0-1.09 1.09v4.34a1.09 1.09 0 0 0 0.0827 0.425 1.09 1.09 0 0 0 5.16e-4 1e-3 1.09 1.09 0 0 0 0.0625 0.127 1.09 1.09 0 0 0 0.0274 0.0408 1.09 1.09 0 0 0 0.0517 0.0775 1.09 1.09 0 0 0 1e-3 1e-3 1.09 1.09 0 0 0 0.0925 0.106 1.09 1.09 0 0 0 5.19e-4 5.16e-4 1.09 1.09 0 0 0 5.16e-4 5.18e-4 1.09 1.09 0 0 0 0.0258 0.0227 1.09 1.09 0 0 0 0.0806 0.0708 1.09 1.09 0 0 0 1e-3 5.16e-4 1.09 1.09 0 0 0 0.118 0.0786 1.09 1.09 0 0 0 5.16e-4 5.15e-4 1.09 1.09 0 0 0 0.127 0.0625 1.09 1.09 0 0 0 5.19e-4 5.16e-4 1.09 1.09 0 0 0 0.135 0.0455 1.09 1.09 0 0 0 5.16e-4 5.16e-4 1.09 1.09 0 0 0 0.282 0.0372h4.35a1.09 1.09 0 0 0 1.09-1.09 1.09 1.09 0 0 0-1.09-1.09h-1.72l2.8-2.8a1.09 1.09 0 0 0 0-1.54 1.09 1.09 0 0 0-0.772-0.318zm4.29 0a1.09 1.09 0 0 0-0.772 0.318 1.09 1.09 0 0 0 0 1.54l2.8 2.8h-1.72a1.09 1.09 0 0 0-1.09 1.09 1.09 1.09 0 0 0 1.09 1.09h4.35a1.09 1.09 0 0 0 0.79-0.342 1.09 1.09 0 0 0 0.0558-0.0636 1.09 1.09 0 0 0 0.0388-0.0517 1.09 1.09 0 0 0 0.0367-0.0543 1.09 1.09 0 0 0 0.0021-0.0036 1.09 1.09 0 0 0 0.0336-0.0574 1.09 1.09 0 0 0 0.0372-0.076 1.09 1.09 0 0 0 0.0227-0.0553 1.09 1.09 0 0 0 0.0253-0.0739 1.09 1.09 0 0 0 0-1e-3 1.09 1.09 0 0 0 0.0191-0.0729 1.09 1.09 0 0 0 0.0108-0.0553 1.09 1.09 0 0 0 0.0026-0.014 1.09 1.09 0 0 0 0.0078-0.0605 1.09 1.09 0 0 0 0.0057-0.0853 1.09 1.09 0 0 0 0.0016-0.0238v-4.35a1.09 1.09 0 0 0-1.09-1.09 1.09 1.09 0 0 0-1.09 1.09v1.72l-2.8-2.8a1.09 1.09 0 0 0-0.772-0.318z" color="#000000" stroke-linecap="round" stroke-linejoin="round" style="-inkscape-stroke:none;paint-order:stroke fill markers"/>
</svg>
