<?xml version="1.0" encoding="UTF-8"?>
<svg width="20" height="20" version="1.1" viewBox="0 0 20 20" xmlns="http://www.w3.org/2000/svg">
 <path d="m11.9 2.01a1.09 1.09 0 0 0-1.09 1.09 1.09 1.09 0 0 0 1.09 1.09h2.4l-6.41 6.41a1.09 1.09 0 0 0 0 1.54 1.09 1.09 0 0 0 1.54 0l6.41-6.41v2.4a1.09 1.09 0 0 0 1.09 1.09 1.09 1.09 0 0 0 1.09-1.09v-5.04a1.09 1.09 0 0 0-1e-3 -0.0129 1.09 1.09 0 0 0-0.0077-0.118 1.09 1.09 0 0 0-0.0036-0.0264 1.09 1.09 0 0 0-0.0227-0.114 1.09 1.09 0 0 0-0.0041-0.0171 1.09 1.09 0 0 0-0.0439-0.129 1.09 1.09 0 0 0-5.18e-4 -5.19e-4 1.09 1.09 0 0 0-0.0589-0.119 1.09 1.09 0 0 0-0.0098-0.0171 1.09 1.09 0 0 0-0.0687-0.103 1.09 1.09 0 0 0-0.0083-0.0109 1.09 1.09 0 0 0-0.0899-0.103 1.09 1.09 0 0 0-5.15e-4 -5.16e-4 1.09 1.09 0 0 0-5.19e-4 -5.19e-4 1.09 1.09 0 0 0-0.12-0.103 1.09 1.09 0 0 0-0.0408-0.0274 1.09 1.09 0 0 0-0.0935-0.0568 1.09 1.09 0 0 0-0.0512-0.0253 1.09 1.09 0 0 0-0.094-0.0388 1.09 1.09 0 0 0-0.0574-0.0196 1.09 1.09 0 0 0-0.0997-0.0238 1.09 1.09 0 0 0-0.0584-0.0114 1.09 1.09 0 0 0-0.154-0.0124zm-8.77 4.14a1.09 1.09 0 0 0-1.09 1.09v9.67a1.09 1.09 0 0 0 1.09 1.09h9.67a1.09 1.09 0 0 0 1.09-1.09v-7.42l-2.18 2.18v4.15h-7.49v-7.49h4.15l2.18-2.18z" color="#000000" fill-rule="evenodd" stroke-linecap="round" stroke-linejoin="round" style="-inkscape-stroke:none;paint-order:stroke fill markers"/>
</svg>
