<?xml version="1.0" encoding="UTF-8"?>
<svg width="20" height="20" version="1.1" viewBox="0 0 20 20" xmlns="http://www.w3.org/2000/svg">
 <path d="m12.7 1.47a3.57 3.57 0 0 0-2.65 1.04l-8.11 8.11a1.55 1.55 0 0 0 0 2.19l5.25 5.25a1.55 1.55 0 0 0 2.19 0l8.11-8.11a3.57 3.57 0 0 0 1.04-2.65l-0.143-4.09a1.66 1.66 0 0 0-1.6-1.6zm1.47 2.47a1.83 1.83 0 0 1 1.36 0.534 1.83 1.83 0 0 1 0 2.59 1.83 1.83 0 0 1-2.59 0 1.83 1.83 0 0 1 0-2.59 1.83 1.83 0 0 1 1.23-0.534z" fill-rule="evenodd" stop-color="#000000" style="-inkscape-stroke:none;font-variation-settings:normal;paint-order:stroke fill markers"/>
</svg>
